# xmcd CD database file
#
# Track frame offsets:
#	150
#	18385
#	33177
#	45912
#	61457
#	74682
#	86855
#	98402
#	111022
#	128620
#	141060
#	156232
#
# Disc length: 2211 seconds
#
# Revision: 0
# Processed by: cddbd v1.5.1PL0 Copyright (c) Steve Scherf et al.
# Submitted via: CDex 1.51
#
DISCID=9708a10c
DTITLE=Elis Regina - Definitivamente MPB-cd 04
DYEAR=1999
DGENRE=MPB
TTITLE0=Romaria-Renato Teixeira
TTITLE1=Cais-Milton Nascimento e Ronaldo Bastos
TTITLE2=Reza-Edu Lobo e Ruy Guerra
TTITLE3=Sinal fechado-Paulinho da Viola
TTITLE4=Ponta de areia-Milton Nascimento e Fernando Brant
TTITLE5=Nada sera como antes-Milton Nascimento e Tonaldo Bastos
TTITLE6=Vera Cruz-Milton Nascimento e Marcio Borges
TTITLE7=Casa Forte-Edu Lobo
TTITLE8=Maria Rosa-Lupcinio Rodrigues e Alcides Gonçalves
TTITLE9=De onde vens-Dory Caymmi e Nelson Mota
TTITLE10=Na batucada da vida-Ary Barroso e Luiz Peixoto
TTITLE11=Me deixa em paz-Ivan Lins e Ronaldo Monteiro
EXTD=YEAR: 1999
EXTT0=
EXTT1=
EXTT2=
EXTT3=
EXTT4=
EXTT5=
EXTT6=
EXTT7=
EXTT8=
EXTT9=
EXTT10=
EXTT11=
PLAYORDER=
